# xmcd
#
# Track frame offsets:
#	150
#	27687
#	44100
#	71997
#	89640
#	102115
#	123060
#
# Disc length: 1915 seconds
#
# Revision: 1
# Processed by: cddbd v1.5.2PL0 Copyright (c) Steve Scherf et al.
# Submitted via: audiograbber 1.83.01
#
DISCID=66077907
DTITLE=Tamplin, Thompson, Reflescent Tide - 9-11 1995 Releases
DYEAR=1995
DGENRE=Blues
TTITLE0=Reflescent Tide - Broken
TTITLE1=Reflescent Tide - Wasted Me
TTITLE2=Reflescent Tide - Home
TTITLE3=Dale Thompson - St. Vitas Dance
TTITLE4=Dale Thompson - Thought I Met The Devil
TTITLE5=Ken Tamplin - We The People
TTITLE6=Ken Tamplin - Save Me
EXTD=
EXTT0=
EXTT1=
EXTT2=
EXTT3=
EXTT4=
EXTT5=
EXTT6=
PLAYORDER=
